<svg width="100" height="100" viewBox="0 0 24 24" xmlns="http://www.w3.org/2000/svg">
  <g id="waving-hand">
    <path d="M12 1C8.686 1 6 3.686 6 7V15C6 18.314 8.686 21 12 21C15.314 21 18 18.314 18 15V7C18 3.686 15.314 1 12 1ZM12 3C14.209 3 16 4.791 16 7V15C16 17.209 14.209 19 12 19C9.791 19 8 17.209 8 15V7C8 4.791 9.791 3 12 3Z"/>
    <path d="M2 13C3.104 13 4 13.896 4 15C4 16.104 3.104 17 2 17C0.896 17 0 16.104 0 15C0 13.896 0.896 13 2 13ZM22 11C23.104 11 24 11.896 24 13C24 14.104 23.104 15 22 15C20.896 15 20 14.104 20 13C20 11.896 20.896 11 22 11ZM18.879 6.879C19.707 6.051 21.121 6.051 21.95 6.879C22.779 7.707 22.779 9.121 21.95 9.95L16.95 14.95C16.121 15.779 14.707 15.779 13.879 14.95C13.051 14.121 13.051 12.707 13.879 11.879L18.879 6.879ZM5.12 10.879C4.292 11.707 2.878 11.707 2.05 10.879C1.222 10.051 1.222 8.637 2.05 7.808L7.05 2.808C7.878 1.979 9.292 1.979 10.121 2.808C10.949 3.636 10.949 5.05 10.121 5.879L5.12 10.879Z"/>
  </g>
  <style>
    #waving-hand {
      animation-name: wave-animation;  /* Name of @keyframes element below */
      animation-duration: 1s;  /* Wave speed */
      animation-iteration-count: infinite;
      animation-timing-function: linear;
      transform-origin: 50% 50%;  /* Pivot from center */
    }
    @keyframes wave-animation {
      0% { transform: rotate( 0deg ); }
      25% { transform: rotate( -10deg ); }
      75% { transform: rotate( 12deg ); }
      100% { transform: rotate( 0deg ); }
    }
  </style>
</svg>
